<svg width="22" height="20" viewBox="0 0 22 20" fill="none" xmlns="http://www.w3.org/2000/svg">
<path fill-rule="evenodd" clip-rule="evenodd" d="M11 3.13042L9.83773 3.36521C8.51934 3.63384 7.33425 4.34974 6.48305 5.39175C5.63186 6.43375 5.16683 7.73786 5.16669 9.08334C5.16669 9.99917 4.97127 12.2873 4.49731 14.5404C4.26398 15.659 3.94898 16.8242 3.53044 17.8333H18.4696C18.0511 16.8242 17.7375 15.6604 17.5027 14.5404C17.0288 12.2873 16.8334 9.99917 16.8334 9.08334C16.8329 7.73811 16.3677 6.43435 15.5165 5.39264C14.6654 4.35093 13.4805 3.63525 12.1623 3.36667L11 3.12896V3.13042ZM20.0709 17.8333C20.3961 18.4852 20.7723 19.0015 21.2084 19.2917H0.791687C1.22773 19.0015 1.60398 18.4852 1.92919 17.8333C3.24169 15.2083 3.70835 10.3667 3.70835 9.08334C3.70835 5.55417 6.21669 2.60834 9.54898 1.93605C9.52862 1.73327 9.551 1.52848 9.61465 1.33488C9.67831 1.14128 9.78183 0.963177 9.91855 0.812047C10.0553 0.660918 10.2221 0.540121 10.4084 0.457449C10.5947 0.374776 10.7962 0.332062 11 0.332062C11.2038 0.332062 11.4053 0.374776 11.5916 0.457449C11.7779 0.540121 11.9448 0.660918 12.0815 0.812047C12.2182 0.963177 12.3217 1.14128 12.3854 1.33488C12.449 1.52848 12.4714 1.73327 12.4511 1.93605C14.0994 2.27132 15.5812 3.16595 16.6456 4.46844C17.7099 5.77094 18.2915 7.40126 18.2917 9.08334C18.2917 10.3667 18.7584 15.2083 20.0709 17.8333Z" fill="white"/>
</svg>
